<?xml version="1.0" encoding="utf-8"?>
<!-- Generator: Adobe Illustrator 19.2.0, SVG Export Plug-In . SVG Version: 6.00 Build 0)  -->
<svg version="1.1" id="psmix_x5F_app_x5F_RGB.svg" xmlns="http://www.w3.org/2000/svg" xmlns:xlink="http://www.w3.org/1999/xlink"
	 x="0px" y="0px" viewBox="0 0 240 235" style="enable-background:new 0 0 240 235;" xml:space="preserve">
<style type="text/css">
	.st0{fill:#FFFFFF;}
</style>
<g>
	<path class="st0" d="M192.8,0H47.2C23.1,0,3.7,19.8,3.7,43.5V191c0,23.7,19.3,43.5,43.5,43.5h145.5c24.2,0,43.5-19.8,43.5-43.5
		V43.5C236.3,19.3,216.9,0,192.8,0z M191.3,151.8C187,162,179.7,170.2,171,177c-12.1,9.7-26.6,15.5-41.6,18.9
		c-18.4,3.9-36.7,4.4-55.1-1c-15.5-4.4-30-11.1-41.6-22.7c-9.2-9.2-12.6-20.8-11.1-33.4c1.5-14,8.2-25.6,16-36.7
		c12.6-17.9,29.5-31.4,49.3-40.6c5.8-2.9,12.1-3.9,18.9-3.9c7.7,0,13.1,4.8,13.5,12.6c0.5,4.8-0.5,9.2-1,14c0,1.5-0.5,2.9-0.5,4.4
		c1,0,1.5-0.5,1.9-0.5c8.2-3.4,16.9-5.3,25.6-6.3c3.4-0.5,6.8-0.5,10.6-0.5c9.2,1,14.5,7.7,13.1,16.9c-0.5,2.9-1,5.3-1.5,8.2
		c-1,3.4,0,4.8,2.9,6.3c4.4,2.4,9.2,4.4,13.5,7.7C193.7,128.1,196.6,139.7,191.3,151.8z M189.4,92.4c-3.4,1-6.3-0.5-7.7-3.9
		s-2.9-7.3-4.8-10.6c-2.9-5.3-7.7-8.2-13.5-10.2c-1-0.5-1.9-0.5-2.9-1c-4.4-1.5-6.3-4.8-4.8-8.7c1-3.4,4.8-5.8,8.7-4.4
		c14,3.9,24.2,12.1,29,26.1c0.5,1.9,1,4.4,1.5,5.3C194.7,89.5,192.8,91.9,189.4,92.4z M218.4,91.9c-4.8,1.5-8.7-1.5-9.2-7.3
		c-1-5.8-1.5-11.6-3.4-16.9c-6.8-16.9-19.8-26.1-38.2-28.5c-2.4-0.5-4.8-0.5-6.8-1c-3.9-1-5.3-3.4-4.8-7.3c0.5-3.4,2.4-5.8,6.3-6.3
		c1,0,2.4,0,3.4,0c26.6,1,50.3,20.3,56.1,46.4c1,4.4,1.5,8.7,1.5,13.5C223.2,88.5,221.3,91.4,218.4,91.9z"/>
	<path class="st0" d="M122.7,106.9c-13.5-2.9-27.1-1.9-40.6,1.5c-12.6,3.4-23.2,9.2-32.4,18.4c-4.8,5.3-8.2,11.6-8.7,19.3
		c-0.5,11.1,4.4,19.3,13.1,25.6c12.1,9.2,26.6,12.1,41.6,12.6c10.6,0,21.3-2.4,31.4-5.8c10.6-3.9,19.3-9.7,26.6-18.4
		c10.2-13.1,8.7-27.6-2.9-39.2C142.5,113.1,132.8,109.3,122.7,106.9z M109.6,158.6c-5.3,5.3-12.6,8.2-22.2,8.2
		c-4.4,0-9.7-1.9-14.5-5.8c-7.3-6.3-8.2-17.4-1.9-24.7c8.7-10.2,22.2-13.1,34.8-6.3C117.3,135.9,118.8,149.9,109.6,158.6z"/>
</g>
</svg>
